<svg version="1.1" id="Layer_1" xmlns="http://www.w3.org/2000/svg" xmlns:xlink="http://www.w3.org/1999/xlink" x="0px" y="0px"
	 width="100%" viewBox="0 0 257 226" enable-background="new 0 0 257 226" xml:space="preserve">
<path fill="#FEFEFF" opacity="1.000000" stroke="none" 
	d="
M175.000000,227.000000 
	C116.666672,227.000000 58.833340,227.000000 1.000008,227.000000 
	C1.000005,151.666672 1.000005,76.333351 1.000003,1.000018 
	C86.666656,1.000012 172.333313,1.000012 258.000000,1.000006 
	C258.000000,76.333321 258.000000,151.666641 258.000000,226.999969 
	C230.500000,227.000000 203.000000,227.000000 175.000000,227.000000 
M142.074661,180.427780 
	C141.233887,179.394760 140.277954,178.434509 139.571671,177.316528 
	C135.909576,171.519699 130.927109,168.379822 123.834152,168.568344 
	C120.712845,168.651291 117.487114,168.139725 114.445793,167.362213 
	C93.109100,161.907486 78.706436,148.705872 73.471664,127.308250 
	C68.082497,105.279510 74.160271,86.172142 91.783531,71.264717 
	C112.961899,53.350037 146.273254,55.005207 165.354507,75.005814 
	C180.172165,90.537392 184.384232,108.786102 179.016205,129.455017 
	C178.580032,131.134415 178.379013,133.612274 179.282471,134.780365 
	C184.440689,141.449600 190.079178,147.744659 195.339279,154.338531 
	C201.747116,162.371155 211.037552,161.294037 214.993759,151.794907 
	C222.476746,133.827789 224.707199,115.282112 221.197250,96.035973 
	C208.678146,27.390032 128.639481,-5.768337 71.605309,34.116310 
	C34.286453,60.213814 20.000080,107.144157 36.592339,149.132935 
	C52.392952,189.118347 92.696686,213.947174 135.920639,209.712067 
	C145.045670,208.817993 153.970428,205.880173 162.883820,203.906982 
	C159.012573,200.096390 155.684006,197.179337 152.790359,193.880753 
	C149.169540,189.753281 145.906097,185.312302 142.074661,180.427780 
M161.067963,193.441223 
	C161.833878,194.080536 162.602066,194.717148 163.365372,195.359573 
	C174.028290,204.333481 190.430267,205.782135 201.018265,198.684219 
	C214.774445,189.462494 219.990646,175.830475 215.450775,160.966400 
	C206.619080,168.727936 200.207672,168.253815 192.795044,159.170853 
	C188.902267,154.400894 185.109039,149.547699 181.348846,144.671936 
	C174.675232,136.018372 166.093903,131.014389 155.021667,130.613983 
	C136.142181,129.931259 121.030289,147.273178 122.569786,162.042892 
	C132.483917,160.050476 138.784988,165.403137 144.313126,172.714432 
	C149.526276,179.609116 155.126007,186.211487 161.067963,193.441223 
z"/>
<path fill="#0267F9" opacity="1.000000" stroke="none" 
	d="
M142.281525,180.717224 
	C145.906097,185.312302 149.169540,189.753281 152.790359,193.880753 
	C155.684006,197.179337 159.012573,200.096390 162.883820,203.906982 
	C153.970428,205.880173 145.045670,208.817993 135.920639,209.712067 
	C92.696686,213.947174 52.392952,189.118347 36.592339,149.132935 
	C20.000080,107.144157 34.286453,60.213814 71.605309,34.116310 
	C128.639481,-5.768337 208.678146,27.390032 221.197250,96.035973 
	C224.707199,115.282112 222.476746,133.827789 214.993759,151.794907 
	C211.037552,161.294037 201.747116,162.371155 195.339279,154.338531 
	C190.079178,147.744659 184.440689,141.449600 179.282471,134.780365 
	C178.379013,133.612274 178.580032,131.134415 179.016205,129.455017 
	C184.384232,108.786102 180.172165,90.537392 165.354507,75.005814 
	C146.273254,55.005207 112.961899,53.350037 91.783531,71.264717 
	C74.160271,86.172142 68.082497,105.279510 73.471664,127.308250 
	C78.706436,148.705872 93.109100,161.907486 114.445793,167.362213 
	C117.487114,168.139725 120.712845,168.651291 123.834152,168.568344 
	C130.927109,168.379822 135.909576,171.519699 139.571671,177.316528 
	C140.277954,178.434509 141.233887,179.394760 142.281525,180.717224 
z"/>
<path fill="#7CBA10" opacity="1.000000" stroke="none" 
	d="
M160.811829,193.191833 
	C155.126007,186.211487 149.526276,179.609116 144.313126,172.714432 
	C138.784988,165.403137 132.483917,160.050476 122.569786,162.042892 
	C121.030289,147.273178 136.142181,129.931259 155.021667,130.613983 
	C166.093903,131.014389 174.675232,136.018372 181.348846,144.671936 
	C185.109039,149.547699 188.902267,154.400894 192.795044,159.170853 
	C200.207672,168.253815 206.619080,168.727936 215.450775,160.966400 
	C219.990646,175.830475 214.774445,189.462494 201.018265,198.684219 
	C190.430267,205.782135 174.028290,204.333481 163.365372,195.359573 
	C162.602066,194.717148 161.833878,194.080536 160.811829,193.191833 
z"/>
</svg>